<?xml version="1.0" encoding="UTF-8"?>
<svg id="Capa_1" data-name="Capa 1" xmlns="http://www.w3.org/2000/svg" viewBox="0 0 136.06 35.93">
  <defs>
    <style>
      .cls-1 {
        fill: #fbc100;
      }

      .cls-1, .cls-2 {
        fill-rule: evenodd;
        stroke-width: 0px;
      }

      .cls-2 {
        fill: #ccc;
      }
    </style>
  </defs>
  <path class="cls-1" d="m.57,31.7C14.81,20.13,25.85,11.78,39.05,2.07c2.65-1.95,7.53-2.77,9.62-1.37,2.09,1.37,2.54,6.38.8,13.77-.47,3.61-.51,5.87-.16,6.73.76,1.05,5.25.41,13.48-1.91,9.52-2.24,19.99-4.68,31.39-7.3,4.8-.94,7.69.39,8.68,4.04.29,6.67.39,11.74.33,15.18-.64,1.31-1.72,1.74-3.28,1.29-1.76-1.03-2.61-3.3-2.42-5.75.47-5.89-.31-7.22-2.69-7.63-2.13-.55-8.37,1.01-18.75,3.76-5.29,1.35-10.36,2.56-15.2,3.63-6.03,1.17-10.42,2.59-14.06,2.5-1.81-.1-3.86-1.03-4.1-4.64-.04-2.75.86-4.62,1.15-6.59.9-6.11-.94-7.72-3.98-6.5C25.14,22.28,14.4,30.22,7.2,35.31c-.9.43-1.79.62-2.63.62H.02l-.02-3.24v-.02c.02-.1.04-.21.08-.31.1-.23.25-.45.49-.66h0Z"/>
  <path class="cls-1" d="m106.72,16.56h3.96c.06,0,.08.04.08.08v14.88c0,.62-.49,1.13-1.13,1.13h-1.87c-.62,0-1.13-.51-1.13-1.13v-14.88s.04-.08.08-.08h0Z"/>
  <path class="cls-1" d="m124.72,11.49c6.26,0,11.35,4.74,11.35,10.59s-5.09,10.57-11.35,10.57-11.33-4.74-11.33-10.57,5.07-10.59,11.33-10.59h0Zm.02,4.12c3.86,0,7,2.93,7,6.57s-3.14,6.57-7,6.57-7-2.93-7-6.57,3.12-6.57,7-6.57h0Z"/>
  <path class="cls-2" d="m107.68,10.69h2.03c.6,0,1.07.47,1.07,1.05v3.1l-.02.02h-4.12v-3.12c0-.57.47-1.05,1.05-1.05h0Z"/>
</svg>